<svg version="1.1" id="Layer_1" xmlns="http://www.w3.org/2000/svg" xmlns:xlink="http://www.w3.org/1999/xlink" x="0px" y="0px"
	 width="100%" viewBox="0 0 1280 1280" enable-background="new 0 0 1280 1280" xml:space="preserve">
<path fill="none" opacity="1.000000" stroke="none" 
	d="
M596.000000,1281.000000 
	C397.333344,1281.000000 199.166672,1281.000000 1.000000,1281.000000 
	C1.000000,854.333313 1.000000,427.666656 1.000000,1.000000 
	C427.666656,1.000000 854.333313,1.000000 1281.000000,1.000000 
	C1281.000000,427.666656 1281.000000,854.333313 1281.000000,1281.000000 
	C1052.833374,1281.000000 824.666687,1281.000000 596.000000,1281.000000 
M737.220093,811.991272 
	C736.779785,812.985535 736.339478,813.979858 735.119751,814.983521 
	C734.066040,816.149231 732.981506,817.288757 731.965759,818.486694 
	C730.274536,820.481323 728.340027,822.345459 727.037781,824.574158 
	C725.559753,827.103760 725.071777,830.260315 723.410828,832.622070 
	C721.392151,835.492310 716.994019,843.092834 717.378418,846.315369 
	C718.383972,854.743958 714.888245,863.214294 719.629395,871.862854 
	C722.057190,876.291504 724.895874,880.786804 726.788574,885.565002 
	C727.903748,888.380188 728.134949,891.413879 731.989868,892.744446 
	C732.664062,893.160645 733.338257,893.576843 734.440857,894.646606 
	C735.650452,898.624329 738.161255,901.157532 742.306885,902.122131 
	C743.632446,902.430603 744.810303,903.347595 746.076660,903.941589 
	C750.183594,905.867920 754.188416,909.056274 758.435913,909.426697 
	C768.013794,910.262085 777.717468,909.838684 787.360474,909.578796 
	C789.131165,909.531067 790.857483,907.837341 792.789124,906.433289 
	C792.854004,906.277954 792.918945,906.122559 793.785278,905.972595 
	C796.781494,904.767517 799.936768,903.846191 802.730591,902.280212 
	C805.726257,900.600952 808.382019,898.315369 811.186035,896.294312 
	C813.553467,894.587952 815.928772,892.892273 818.284729,891.170227 
	C819.591675,890.215088 820.883118,889.237061 822.152405,888.232605 
	C826.561157,884.743713 830.996765,881.286865 835.336731,877.714111 
	C836.889832,876.435486 838.218018,874.879089 839.617249,873.419128 
	C841.666199,871.281128 843.461121,868.820190 845.784302,867.047424 
	C847.989868,865.364502 851.068542,864.787964 853.178223,863.024841 
	C858.423767,858.641357 862.743774,852.833435 868.529663,849.492493 
	C876.016052,845.169556 880.438965,837.582520 888.261597,833.580688 
	C893.335205,830.985046 896.624329,825.121887 901.275879,821.432434 
	C909.717957,814.736328 919.385803,809.498291 925.550659,800.193726 
	C925.730225,799.922668 926.477417,800.019531 926.961853,799.960022 
	C931.037598,799.458984 932.950684,797.049622 933.002441,793.001831 
	C933.002441,793.001831 933.050781,793.066772 933.851990,793.015381 
	C935.354065,792.599243 937.228943,792.615112 938.295654,791.694580 
	C943.832825,786.915771 949.123230,781.852661 954.581238,776.980042 
	C958.088440,773.848877 961.634216,770.743713 965.345947,767.863037 
	C970.594299,763.789856 977.526978,760.924927 980.934937,755.710388 
	C984.405518,750.400146 992.249695,750.231201 993.447510,743.277710 
	C993.480835,743.083984 994.386841,743.117615 994.813049,742.901611 
	C997.338745,741.621582 1000.173828,740.690308 1002.282227,738.905945 
	C1006.093140,735.680786 1009.351501,731.812378 1013.049194,728.441345 
	C1018.009521,723.919250 1023.197632,719.648071 1028.229614,715.203003 
	C1030.858521,712.880798 1033.205566,710.217041 1035.957153,708.061218 
	C1041.054443,704.067505 1046.654053,700.670959 1051.484863,696.393616 
	C1056.038574,692.361572 1059.871826,687.515930 1064.760132,682.910034 
	C1065.575439,681.304932 1066.390869,679.699829 1067.993408,678.076111 
	C1071.492676,675.217957 1074.786621,672.247742 1074.777710,666.999390 
	C1075.167114,665.996277 1075.556641,664.993164 1076.509033,663.624268 
	C1076.673340,662.753357 1076.837769,661.882446 1077.721191,660.788025 
	C1077.732788,659.559875 1077.744385,658.331665 1077.803223,656.153137 
	C1077.785034,649.072876 1077.766846,641.992615 1077.982544,634.194641 
	C1077.651733,633.147705 1077.320923,632.100769 1076.754517,630.299744 
	C1076.749634,629.510193 1076.744629,628.720703 1076.765259,627.245605 
	C1075.849365,626.469299 1074.933594,625.692993 1073.962402,624.102966 
	C1075.329834,619.603699 1070.849487,618.609802 1069.004639,615.262390 
	C1068.229980,614.533325 1067.455322,613.804260 1066.924561,612.322510 
	C1066.531860,611.351257 1066.394531,610.116272 1065.706543,609.450256 
	C1059.979980,603.907471 1054.053223,598.569824 1048.383911,592.970764 
	C1043.200073,587.851257 1036.557251,584.486755 1031.901245,578.695312 
	C1029.699097,575.956238 1026.725098,573.801208 1023.935608,571.590027 
	C1022.880066,570.753174 1021.359436,570.502930 1020.004272,569.188477 
	C1018.996948,568.479431 1017.989624,567.770386 1016.959839,566.285889 
	C1015.856262,564.967407 1014.663269,563.713074 1013.664551,562.319458 
	C1009.304932,556.236328 1001.296326,553.758606 998.079590,546.535950 
	C997.936584,546.214966 997.198364,546.203186 996.811340,545.939026 
	C995.345581,544.938538 993.801697,544.015198 992.485168,542.840759 
	C989.217834,539.925964 986.093750,536.851379 982.849243,533.910278 
	C978.482178,529.951599 974.146118,525.950439 969.627686,522.169556 
	C965.789490,518.957947 961.699585,516.048096 957.746582,512.971924 
	C956.474976,511.982361 955.284729,510.888367 954.110657,509.124939 
	C951.729309,507.181580 949.347961,505.238251 946.436096,503.023224 
	C945.971436,502.676208 945.506836,502.329193 944.908630,501.343170 
	C944.242493,500.963470 943.576294,500.583771 942.926270,500.072784 
	C942.926270,500.072784 942.794983,500.088745 942.891785,499.294556 
	C942.715881,496.861725 941.587524,495.566589 938.805542,495.456238 
	C938.463745,494.972626 938.122009,494.489044 937.861755,493.499146 
	C937.574951,493.428680 937.288086,493.358246 936.247986,493.130920 
	C935.147583,492.312805 933.941589,491.603546 932.965271,490.657410 
	C929.091797,486.903992 925.806824,482.219818 921.319275,479.512756 
	C916.655640,476.699463 913.851746,472.358459 909.896118,469.047974 
	C900.962402,461.571350 892.382568,453.673492 883.535950,446.090302 
	C878.848083,442.071960 873.333252,438.874756 869.214294,434.371552 
	C863.664307,428.303802 858.192749,422.379089 851.295410,417.743439 
	C848.752319,416.034210 847.211731,412.833344 844.994263,410.035736 
	C843.700745,409.955078 841.931946,409.844757 839.795227,409.711517 
	C841.758545,404.694214 837.271973,404.595642 835.072510,402.723572 
	C828.549683,397.171631 822.110596,391.519592 815.515076,386.056000 
	C813.198059,384.136658 809.315063,383.196808 808.255066,380.855377 
	C805.852600,375.548004 801.229126,375.980865 797.005188,374.052765 
	C796.993286,373.720337 796.994690,373.097778 796.967590,373.096527 
	C791.691528,372.854095 788.562805,367.256012 782.537720,368.026978 
	C775.328979,368.949310 767.906311,368.080566 760.643250,368.732758 
	C754.017029,369.327850 749.546936,375.770782 742.628540,376.257843 
	C741.480408,376.338684 740.281799,377.467285 739.334473,378.354980 
	C731.999268,385.228485 725.980713,393.495728 721.561829,402.148895 
	C719.082214,407.004456 716.280396,413.227661 717.085938,419.837006 
	C717.742126,425.220245 717.219421,430.747162 717.219421,434.780060 
	C718.641235,437.243134 720.231262,438.706360 720.071899,439.944397 
	C719.369141,445.404419 724.453186,447.778900 726.011658,451.962372 
	C726.069946,452.118866 726.633606,452.087158 726.970154,452.946960 
	C726.660278,457.602325 730.401428,459.939026 732.977478,462.703796 
	C738.257263,468.370422 743.960388,473.645111 749.536804,479.031799 
	C753.317261,482.683624 756.614441,487.550476 761.150024,489.520813 
	C766.549927,491.866669 768.760559,496.944244 773.261353,499.896057 
	C778.414917,503.275879 783.928833,507.113525 787.127014,512.129089 
	C789.429077,515.739380 791.824524,515.746582 794.886353,516.218323 
	C794.556213,516.656677 794.226135,517.095032 793.895996,517.533447 
	C796.164185,519.337830 798.432312,521.142212 800.700623,522.946411 
	C801.164307,523.315247 801.666626,523.644470 802.086914,524.057312 
	C807.405884,529.282349 812.568237,534.677429 818.061035,539.712219 
	C824.519165,545.631653 831.294067,551.204163 837.869202,556.997925 
	C842.308044,560.909363 846.639099,564.942993 851.112976,569.680237 
	C855.544128,574.408386 854.904907,579.099915 851.024170,583.779114 
	C850.943359,583.876587 851.009399,584.095825 850.283936,584.329407 
	C849.558289,584.346558 848.832703,584.363708 847.360474,584.045715 
	C846.547241,584.109253 845.734009,584.172729 844.314575,584.016541 
	C843.886230,584.038330 843.457947,584.060120 842.273315,583.893616 
	C841.501648,583.956421 840.729919,584.019226 839.028992,584.004822 
	C646.698730,584.002869 454.368500,583.992676 262.038300,584.051208 
	C257.654633,584.052551 253.254852,584.706665 248.891571,585.277893 
	C242.502731,586.114075 236.139420,587.146179 229.768616,588.117065 
	C229.474030,588.161926 229.211548,588.423401 228.936172,588.587585 
	C224.829834,591.034607 220.340439,593.025146 216.725021,596.057617 
	C213.072693,599.121094 208.842407,602.171570 206.444061,606.023254 
	C203.591034,610.605103 198.525528,613.900818 197.889893,619.977539 
	C197.625687,622.503418 195.438339,624.877380 195.351013,627.363525 
	C195.047546,636.002808 195.104385,644.666992 195.398010,653.309021 
	C195.514664,656.741882 195.534439,661.031860 197.476364,663.375427 
	C201.849350,668.652771 204.136932,675.382263 209.986588,679.767883 
	C212.464691,681.625793 214.727631,684.004272 217.553284,685.576965 
	C218.342392,686.016113 219.718826,686.248108 219.878845,686.833801 
	C221.045975,691.106140 225.059113,690.682678 228.368912,692.726135 
	C228.699539,692.731445 229.081131,692.629150 229.353210,692.757996 
	C233.908310,694.915405 239.297485,692.685303 243.961945,696.458313 
	C246.212097,698.278381 251.255219,696.645508 255.952087,696.735046 
	C259.778320,696.702393 263.604553,696.669678 267.892975,696.858887 
	C268.691986,696.784302 269.491028,696.709717 271.395721,696.776855 
	C272.878906,696.727661 274.362091,696.678467 276.062592,696.686890 
	C276.437408,696.667603 276.812195,696.648376 278.068359,696.770386 
	C288.691681,696.726013 299.314972,696.681580 310.743225,696.875305 
	C311.850739,696.795959 312.958282,696.716553 314.983490,696.785645 
	C321.635101,696.736145 328.286682,696.686646 335.856873,696.875488 
	C341.173859,696.836731 346.490753,696.778870 351.807800,696.762512 
	C375.899994,696.688477 399.992188,696.626099 424.995789,696.729004 
	C429.575409,696.697693 434.155060,696.666443 439.154480,696.851624 
	C439.960144,696.780090 440.765808,696.708557 442.412018,696.784302 
	C443.261078,696.735229 444.110107,696.686096 445.613464,696.875916 
	C446.764221,696.796326 447.914978,696.716736 449.983704,696.785706 
	C459.968567,696.736206 469.953430,696.686707 480.743225,696.875305 
	C481.850739,696.795959 482.958282,696.716553 484.983490,696.785645 
	C491.635101,696.736145 498.286682,696.686646 505.856750,696.875916 
	C512.166321,696.837036 518.475830,696.783081 524.785461,696.761963 
	C547.864929,696.684509 570.944397,696.617981 594.867249,696.775146 
	C599.224304,696.729126 603.581360,696.683105 608.743347,696.875244 
	C609.850830,696.795898 610.958313,696.716553 612.776367,696.785217 
	C613.497070,696.735901 614.217712,696.686523 615.743347,696.875244 
	C616.850830,696.795898 617.958313,696.716553 619.983704,696.785645 
	C630.301941,696.736145 640.620239,696.686646 651.702332,696.874939 
	C652.490051,696.795654 653.277832,696.716370 654.983337,696.785645 
	C661.968262,696.736145 668.953247,696.686646 676.856750,696.875427 
	C682.173584,696.836670 687.490295,696.779053 692.807190,696.762451 
	C716.566284,696.688477 740.325317,696.626160 764.988098,696.728882 
	C769.306396,696.698303 773.624634,696.667664 778.470825,696.880249 
	C779.669128,696.799255 780.867493,696.718201 782.831848,696.785217 
	C783.867371,696.735901 784.902954,696.686523 786.702332,696.875000 
	C787.490051,696.795715 788.277832,696.716431 789.983337,696.785706 
	C801.624756,696.736145 813.266235,696.686584 825.539551,696.882751 
	C834.700684,696.895447 843.861816,696.908081 853.002930,697.723694 
	C854.498291,698.797485 855.913391,700.635498 857.503967,700.802612 
	C862.365845,701.313354 860.444092,703.737305 859.395691,706.067566 
	C858.946472,707.066040 858.475464,708.054626 857.267822,709.275208 
	C855.743958,710.893066 854.169128,712.374146 852.395325,713.780762 
	C844.513428,720.030823 837.557800,727.430725 829.953308,734.054504 
	C823.766296,739.443787 817.082764,744.259460 810.730896,749.465515 
	C808.908142,750.959473 807.608948,753.082947 805.822815,754.633362 
	C803.959778,756.250549 801.706604,757.411560 799.790955,758.976318 
	C797.237854,761.061829 794.374390,763.004333 792.489197,765.617798 
	C789.230347,770.135376 783.219360,770.721497 780.075745,775.857117 
	C777.309631,780.375977 772.152161,783.431030 767.265076,787.134399 
	C766.225525,787.420532 765.186035,787.706604 764.091064,788.739868 
	C762.846252,789.833801 761.601379,790.927673 760.087952,792.744080 
	C755.525757,796.525696 750.835510,800.166504 746.456299,804.149231 
	C744.315735,806.096008 742.753906,808.679016 740.459045,811.054382 
	C740.459045,811.054382 740.006165,811.206970 739.392883,811.018738 
	C738.915466,811.285645 738.438049,811.552551 737.220093,811.991272 
z"/>
<path fill="#FEFEFE" opacity="1.000000" stroke="none" 
	d="
M734.012451,893.993042 
	C733.338257,893.576843 732.664062,893.160645 732.302856,892.370239 
	C734.364685,891.784058 737.173401,891.907776 735.130737,889.111267 
	C733.032532,886.239075 730.105225,883.972595 726.793213,880.703003 
	C725.495300,876.902649 723.307129,871.821716 722.066895,866.519043 
	C720.610962,860.293457 719.924744,853.882507 719.061340,847.530762 
	C718.959534,846.781982 719.847473,845.899170 720.275391,845.077942 
	C720.836914,844.000122 721.866638,842.924438 721.872986,841.843079 
	C721.895325,838.059875 723.283813,835.191650 726.356873,832.964661 
	C727.377930,832.224792 728.763245,830.854187 728.670776,829.898926 
	C728.154907,824.568787 731.734009,823.172485 735.883179,822.234802 
	C735.339600,818.299805 736.851929,816.374695 740.426697,814.930115 
	C742.689392,814.015747 744.118652,811.038635 745.981506,808.618896 
	C746.161133,807.776245 746.123230,807.058167 746.424438,806.862854 
	C750.737244,804.064819 755.279907,801.581238 759.369507,798.494995 
	C761.577942,796.828308 763.030579,794.160034 765.112122,791.925415 
	C765.585938,791.863098 765.771851,791.819153 766.326172,791.794556 
	C770.625244,791.219055 772.379150,788.947021 772.319458,784.954102 
	C777.845703,781.888062 783.002563,778.860962 788.409302,775.687195 
	C790.022644,769.658081 795.191711,766.382751 800.464844,763.196106 
	C802.424927,762.011597 804.609070,761.052917 806.254395,759.521912 
	C809.885742,756.143005 813.008484,752.198242 816.752625,748.963501 
	C825.932068,741.032532 835.642822,733.693787 844.537170,725.465332 
	C848.821655,721.501770 855.922241,720.878296 857.779907,713.925903 
	C858.265076,712.109863 860.668945,710.806519 862.500183,709.155640 
	C864.076294,708.190979 865.343811,707.338318 867.020203,706.627319 
	C870.540039,706.577881 872.636963,705.132874 875.146851,703.034912 
	C878.258850,700.433350 878.877930,697.670532 877.371582,695.283386 
	C876.630066,694.108276 872.562500,695.031982 869.625488,695.011719 
	C868.502075,695.029419 867.753113,695.041321 866.709290,694.757568 
	C853.542114,694.343018 840.669678,694.169250 827.797913,694.215454 
	C826.831604,694.218933 825.870911,695.793030 824.907654,696.637085 
	C813.266235,696.686584 801.624756,696.736145 789.566528,696.372803 
	C788.564331,695.375732 787.978943,694.791504 787.393494,694.207275 
	C786.908508,695.017212 786.423462,695.827209 785.938477,696.637146 
	C784.902954,696.686523 783.867371,696.735901 782.471802,696.310181 
	C780.120361,692.973694 778.745483,693.317688 777.942932,696.637085 
	C773.624634,696.667664 769.306396,696.698303 764.504639,696.137817 
	C762.875793,695.057617 761.731567,694.144897 760.584656,694.141418 
	C733.450500,694.058716 706.315857,694.044250 679.182129,694.179626 
	C678.096741,694.185059 677.019287,695.781860 675.938171,696.637207 
	C668.953247,696.686646 661.968262,696.736145 654.566528,696.372803 
	C653.564331,695.375793 652.978943,694.791565 652.393555,694.207275 
	C651.908447,695.017212 651.423462,695.827148 650.938477,696.637085 
	C640.620239,696.686646 630.301941,696.736145 619.561829,696.358643 
	C618.308411,695.331238 617.476807,694.730896 616.645264,694.130554 
	C616.076294,694.966125 615.507385,695.801636 614.938477,696.637207 
	C614.217712,696.686523 613.497070,696.735901 612.458130,696.358215 
	C611.231995,695.345093 610.324097,694.758972 609.416199,694.172913 
	C608.923584,694.994324 608.430969,695.815735 607.938416,696.637085 
	C603.581360,696.683105 599.224304,696.729126 594.445923,696.218140 
	C592.935059,695.132812 591.846924,694.146484 590.755737,694.143066 
	C563.225037,694.056335 535.693848,694.043823 508.163574,694.179626 
	C507.084473,694.184937 506.013214,695.781860 504.938293,696.637146 
	C498.286682,696.686646 491.635101,696.736145 484.561737,696.358643 
	C483.308441,695.331238 482.476898,694.730957 481.645355,694.130615 
	C481.076324,694.966125 480.507324,695.801636 479.938293,696.637207 
	C469.953430,696.686707 459.968567,696.736206 449.556580,696.339600 
	C447.191528,693.069031 445.748230,693.018433 444.959167,696.637024 
	C444.110107,696.686096 443.261078,696.735229 442.127838,696.288818 
	C441.011200,695.304993 440.178741,694.816650 439.346283,694.328308 
	C439.142426,695.097229 438.938538,695.866211 438.734680,696.635132 
	C434.155060,696.666443 429.575409,696.697693 424.508484,696.137817 
	C422.875702,695.057556 421.731506,694.144775 420.584564,694.141357 
	C393.117126,694.058899 365.649231,694.044617 338.182220,694.179688 
	C337.096893,694.184998 336.019409,695.781860 334.938293,696.637146 
	C328.286682,696.686646 321.635101,696.736145 314.561737,696.358643 
	C313.308441,695.331299 312.476898,694.730957 311.645355,694.130615 
	C311.076324,694.966125 310.507324,695.801636 309.938293,696.637146 
	C299.314972,696.681580 288.691681,696.726013 277.875305,696.263550 
	C277.135559,695.383606 276.588837,695.010498 276.042175,694.637451 
	C275.976532,695.301392 275.910919,695.965332 275.845276,696.629333 
	C274.362091,696.678467 272.878906,696.727661 271.063507,696.290466 
	C269.914154,695.306580 269.097015,694.809082 268.279846,694.311646 
	C267.996826,695.086792 267.713806,695.861877 267.430786,696.637024 
	C263.604553,696.669678 259.778320,696.702393 255.493439,696.218384 
	C254.612228,695.234436 254.251450,694.442444 253.757843,694.348511 
	C246.215149,692.913391 238.667328,691.491272 231.083267,690.305969 
	C230.165756,690.162598 229.030640,691.411621 227.996368,692.015259 
	C225.059113,690.682678 221.045975,691.106140 219.878845,686.833801 
	C219.718826,686.248108 218.342392,686.016113 217.553284,685.576965 
	C214.727631,684.004272 212.464691,681.625793 209.986588,679.767883 
	C204.136932,675.382263 201.849350,668.652771 197.476364,663.375427 
	C195.534439,661.031860 195.514664,656.741882 195.398010,653.309021 
	C195.104385,644.666992 195.047546,636.002808 195.351013,627.363525 
	C195.438339,624.877380 197.625687,622.503418 197.889893,619.977539 
	C198.525528,613.900818 203.591034,610.605103 206.444061,606.023254 
	C208.842407,602.171570 213.072693,599.121094 216.725021,596.057617 
	C220.340439,593.025146 224.829834,591.034607 228.936172,588.587585 
	C229.211548,588.423401 229.474030,588.161926 229.768616,588.117065 
	C236.139420,587.146179 242.502731,586.114075 248.891571,585.277893 
	C253.254852,584.706665 257.654633,584.052551 262.038300,584.051208 
	C454.368500,583.992676 646.698730,584.002869 839.235229,584.373657 
	C835.456543,584.829163 831.471680,584.991394 827.486816,584.991638 
	C639.697205,585.004089 451.907623,585.002502 264.118011,585.002502 
	C262.341919,585.002502 260.565826,585.002502 258.789764,585.002502 
	C258.789856,585.334167 258.789978,585.665833 258.790070,585.997498 
	C260.751282,585.997498 262.712524,585.997437 264.673737,585.997437 
	C404.307892,585.997742 543.942017,585.998291 683.576172,585.998413 
	C735.230408,585.998474 786.884583,586.013916 838.538696,585.917114 
	C840.036804,585.914307 841.532654,584.720459 843.029602,584.081909 
	C843.457947,584.060120 843.886230,584.038330 844.624634,584.458130 
	C845.992126,584.726746 847.049622,584.553772 848.107056,584.380859 
	C848.832703,584.363708 849.558289,584.346558 850.633667,584.693848 
	C856.661560,585.176941 862.339661,585.295593 868.056641,585.666626 
	C868.785095,585.665527 869.474854,585.412048 870.492676,585.055420 
	C872.964905,580.838196 870.539124,579.559631 867.047241,578.531189 
	C867.136597,574.907471 865.141602,574.789185 862.465393,575.204285 
	C861.787781,575.102417 861.401062,575.041504 861.003174,574.585815 
	C860.625366,567.858826 855.714783,566.585815 850.656494,564.963013 
	C847.654114,562.182312 844.858093,559.675842 842.232788,557.001770 
	C838.249268,552.944275 832.816406,550.284424 830.672607,544.398743 
	C830.067749,542.738281 828.164429,540.599426 826.629883,540.396667 
	C820.568909,539.595825 820.625305,532.091614 815.075745,530.626038 
	C812.374329,529.912598 809.498474,527.816956 807.875793,525.518127 
	C805.116394,521.609009 799.104370,520.920471 798.199768,515.365234 
	C798.145813,515.033264 797.447021,514.681824 796.989380,514.558899 
	C790.563416,512.832886 790.132385,503.633301 782.718262,503.080444 
	C782.383484,503.055481 782.261536,501.834900 781.813538,501.411224 
	C777.778870,497.595947 773.789124,493.723511 769.588562,490.096771 
	C766.885864,487.763306 763.631104,486.054016 761.009155,483.645386 
	C754.475098,477.642883 748.770630,470.494598 741.516602,465.614777 
	C737.552246,462.947937 734.449585,460.365509 731.927429,456.492523 
	C730.771545,454.717560 728.646973,453.573395 726.961731,452.143158 
	C726.633606,452.087158 726.069946,452.118866 726.011658,451.962372 
	C724.453186,447.778900 719.369141,445.404419 720.071899,439.944397 
	C720.231262,438.706360 718.641235,437.243134 717.219421,434.780060 
	C717.219421,430.747162 717.742126,425.220245 717.085938,419.837006 
	C716.280396,413.227661 719.082214,407.004456 721.561829,402.148895 
	C725.980713,393.495728 731.999268,385.228485 739.334473,378.354980 
	C740.281799,377.467285 741.480408,376.338684 742.628540,376.257843 
	C749.546936,375.770782 754.017029,369.327850 760.643250,368.732758 
	C767.906311,368.080566 775.328979,368.949310 782.537720,368.026978 
	C788.562805,367.256012 791.691528,372.854095 796.967590,373.096527 
	C796.994690,373.097778 796.993286,373.720337 797.071411,374.809998 
	C799.340698,377.880310 801.494202,380.243469 803.764160,382.488922 
	C805.316345,384.024170 806.802429,385.919098 808.711304,386.751526 
	C818.371155,390.964294 825.144958,398.423370 832.118103,405.950928 
	C836.703796,410.901337 842.742188,414.476410 847.889099,418.944885 
	C853.158386,423.519684 858.199463,428.365173 863.213989,433.222778 
	C866.367065,436.277283 868.746338,440.906586 872.453857,442.409790 
	C876.761780,444.156433 878.372314,446.446259 878.485413,450.410889 
	C886.274902,451.633026 886.310303,451.605103 890.686890,457.154053 
	C891.583923,458.291412 891.808167,460.071960 892.849548,460.964813 
	C899.878418,466.991516 907.140625,472.747314 914.135742,478.811768 
	C920.303223,484.158691 926.418579,489.595551 932.192810,495.357605 
	C937.550110,500.703613 942.308899,506.680511 949.989624,509.425476 
	C950.727905,510.137543 951.335754,510.594421 952.028381,511.385132 
	C953.886963,513.781616 955.475708,516.047180 957.471436,517.866394 
	C962.244324,522.217346 967.215088,526.350769 972.094177,530.585632 
	C977.175415,534.996033 982.176514,539.501770 987.340149,543.813171 
	C990.681213,546.602844 994.445984,548.901672 997.674316,551.805786 
	C1003.013062,556.608337 1008.011475,561.788391 1013.318909,566.627747 
	C1014.057678,567.301331 1015.737854,566.942383 1016.982239,567.061340 
	C1017.989624,567.770386 1018.996948,568.479431 1019.770630,569.758301 
	C1021.916992,573.261963 1024.237549,576.246643 1026.692505,579.116394 
	C1029.470337,582.363342 1031.855103,586.313660 1035.324585,588.523010 
	C1041.960938,592.748962 1048.838623,596.095459 1053.727295,602.935486 
	C1056.786011,607.215210 1062.279541,609.754822 1066.680664,613.075195 
	C1067.455322,613.804260 1068.229980,614.533325 1068.760742,615.678528 
	C1069.363770,618.333313 1070.210693,620.571960 1071.057617,622.810608 
	C1070.904419,622.802429 1070.751099,622.794189 1070.597778,622.786011 
	C1071.007690,624.770142 1071.417725,626.754333 1071.827637,628.738525 
	C1072.382324,628.671448 1072.937012,628.604431 1073.491577,628.537354 
	C1073.666992,627.330444 1073.842407,626.123596 1074.017822,624.916687 
	C1074.933594,625.692993 1075.849365,626.469299 1076.357666,627.662598 
	C1075.841675,631.081482 1075.564819,634.088440 1075.656616,637.084106 
	C1075.927490,645.912354 1077.239136,654.789062 1073.698242,663.283752 
	C1068.423828,663.434387 1070.631958,666.858276 1070.665405,669.560486 
	C1065.389282,670.305420 1065.816040,674.212524 1065.858643,678.093872 
	C1065.428711,678.173828 1065.258667,678.215820 1064.746338,678.198914 
	C1060.663086,678.112366 1063.375732,680.600342 1062.704346,681.868530 
	C1062.456787,681.871216 1061.965698,681.935913 1061.609131,681.953125 
	C1060.514893,682.683289 1059.777344,683.396240 1058.726562,684.229858 
	C1057.815674,684.922607 1057.210449,685.487122 1056.621216,686.067932 
	C1052.607666,690.024536 1048.725464,694.125671 1044.552734,697.906555 
	C1039.787109,702.224731 1034.766602,706.262024 1029.850464,710.413879 
	C1028.790649,711.308838 1027.764771,712.834167 1026.619263,712.939636 
	C1020.286072,713.522644 1017.888062,719.564880 1013.332153,722.601379 
	C1006.012878,727.479675 1000.381714,734.829468 993.721802,740.782104 
	C990.043152,744.070068 985.494019,746.373718 981.744751,749.595276 
	C976.062683,754.477661 970.758667,759.798157 965.244141,764.878418 
	C963.580261,766.411255 961.862610,767.935913 959.975220,769.166077 
	C955.518433,772.071045 949.436584,772.611267 947.531372,779.162048 
	C946.954468,781.145569 943.894104,782.724426 941.648254,783.835938 
	C937.534729,785.871704 933.864014,788.066589 933.050781,793.066772 
	C933.050781,793.066772 933.002441,793.001831 932.662109,793.011475 
	C929.939331,794.645874 927.635864,796.403564 925.160767,797.872192 
	C914.603271,804.136902 905.656494,812.301270 897.303711,821.189819 
	C896.744446,821.785095 896.120483,822.450073 895.390869,822.733826 
	C890.538025,824.621094 886.164062,827.005920 883.352905,831.724365 
	C882.147156,833.748169 880.440552,835.555786 878.680664,837.151917 
	C873.103149,842.210815 865.054077,843.955444 860.777466,850.980408 
	C859.532898,853.024780 856.234680,853.761902 854.003662,855.282837 
	C852.516418,856.296753 851.126648,857.523071 849.912598,858.854309 
	C846.972839,862.077942 844.473694,865.772644 841.229736,868.634521 
	C835.431702,873.749634 829.786743,879.530762 823.019531,882.921204 
	C815.760254,886.558044 811.977539,893.886230 804.854736,897.290283 
	C803.181274,898.089905 801.981934,900.663452 800.433594,900.787720 
	C796.693970,901.087646 794.873535,903.408020 792.983887,905.967163 
	C792.918945,906.122559 792.854004,906.277954 792.268127,906.673889 
	C783.516785,907.296082 775.289795,907.815796 767.055054,908.016418 
	C760.238098,908.182434 754.471252,905.403320 748.948303,901.473206 
	C744.425415,898.254700 740.216553,894.009827 734.012451,893.993042 
z"/>
<path fill="#D3D3D3" opacity="1.000000" stroke="none" 
	d="
M949.859192,509.170288 
	C942.308899,506.680511 937.550110,500.703613 932.192810,495.357605 
	C926.418579,489.595551 920.303223,484.158691 914.135742,478.811768 
	C907.140625,472.747314 899.878418,466.991516 892.849548,460.964813 
	C891.808167,460.071960 891.583923,458.291412 890.686890,457.154053 
	C886.310303,451.605103 886.274902,451.633026 878.485413,450.410889 
	C878.372314,446.446259 876.761780,444.156433 872.453857,442.409790 
	C868.746338,440.906586 866.367065,436.277283 863.213989,433.222778 
	C858.199463,428.365173 853.158386,423.519684 847.889099,418.944885 
	C842.742188,414.476410 836.703796,410.901337 832.118103,405.950928 
	C825.144958,398.423370 818.371155,390.964294 808.711304,386.751526 
	C806.802429,385.919098 805.316345,384.024170 803.764160,382.488922 
	C801.494202,380.243469 799.340698,377.880310 797.103821,375.216949 
	C801.229126,375.980865 805.852600,375.548004 808.255066,380.855377 
	C809.315063,383.196808 813.198059,384.136658 815.515076,386.056000 
	C822.110596,391.519592 828.549683,397.171631 835.072510,402.723572 
	C837.271973,404.595642 841.758545,404.694214 839.795227,409.711517 
	C841.931946,409.844757 843.700745,409.955078 844.994263,410.035736 
	C847.211731,412.833344 848.752319,416.034210 851.295410,417.743439 
	C858.192749,422.379089 863.664307,428.303802 869.214294,434.371552 
	C873.333252,438.874756 878.848083,442.071960 883.535950,446.090302 
	C892.382568,453.673492 900.962402,461.571350 909.896118,469.047974 
	C913.851746,472.358459 916.655640,476.699463 921.319275,479.512756 
	C925.806824,482.219818 929.091797,486.903992 932.965271,490.657410 
	C933.941589,491.603546 935.147583,492.312805 936.693970,493.384338 
	C937.304321,493.845673 937.517761,493.968231 937.780212,494.005432 
	C938.122009,494.489044 938.463745,494.972626 938.915161,496.078522 
	C940.281494,497.830109 941.538208,498.959442 942.794983,500.088745 
	C942.794983,500.088745 942.926270,500.072784 942.967224,500.453613 
	C943.686157,501.217010 944.364197,501.599609 945.042175,501.982178 
	C945.506836,502.329193 945.971436,502.676208 946.744934,503.494263 
	C947.988892,505.700287 948.924072,507.435303 949.859192,509.170288 
z"/>
<path fill="#CACACA" opacity="1.000000" stroke="none" 
	d="
M793.384583,905.969849 
	C794.873535,903.408020 796.693970,901.087646 800.433594,900.787720 
	C801.981934,900.663452 803.181274,898.089905 804.854736,897.290283 
	C811.977539,893.886230 815.760254,886.558044 823.019531,882.921204 
	C829.786743,879.530762 835.431702,873.749634 841.229736,868.634521 
	C844.473694,865.772644 846.972839,862.077942 849.912598,858.854309 
	C851.126648,857.523071 852.516418,856.296753 854.003662,855.282837 
	C856.234680,853.761902 859.532898,853.024780 860.777466,850.980408 
	C865.054077,843.955444 873.103149,842.210815 878.680664,837.151917 
	C880.440552,835.555786 882.147156,833.748169 883.352905,831.724365 
	C886.164062,827.005920 890.538025,824.621094 895.390869,822.733826 
	C896.120483,822.450073 896.744446,821.785095 897.303711,821.189819 
	C905.656494,812.301270 914.603271,804.136902 925.160767,797.872192 
	C927.635864,796.403564 929.939331,794.645874 932.694336,793.036133 
	C932.950684,797.049622 931.037598,799.458984 926.961853,799.960022 
	C926.477417,800.019531 925.730225,799.922668 925.550659,800.193726 
	C919.385803,809.498291 909.717957,814.736328 901.275879,821.432434 
	C896.624329,825.121887 893.335205,830.985046 888.261597,833.580688 
	C880.438965,837.582520 876.016052,845.169556 868.529663,849.492493 
	C862.743774,852.833435 858.423767,858.641357 853.178223,863.024841 
	C851.068542,864.787964 847.989868,865.364502 845.784302,867.047424 
	C843.461121,868.820190 841.666199,871.281128 839.617249,873.419128 
	C838.218018,874.879089 836.889832,876.435486 835.336731,877.714111 
	C830.996765,881.286865 826.561157,884.743713 822.152405,888.232605 
	C820.883118,889.237061 819.591675,890.215088 818.284729,891.170227 
	C815.928772,892.892273 813.553467,894.587952 811.186035,896.294312 
	C808.382019,898.315369 805.726257,900.600952 802.730591,902.280212 
	C799.936768,903.846191 796.781494,904.767517 793.384583,905.969849 
z"/>
<path fill="#CACACA" opacity="1.000000" stroke="none" 
	d="
M726.965942,452.545044 
	C728.646973,453.573395 730.771545,454.717560 731.927429,456.492523 
	C734.449585,460.365509 737.552246,462.947937 741.516602,465.614777 
	C748.770630,470.494598 754.475098,477.642883 761.009155,483.645386 
	C763.631104,486.054016 766.885864,487.763306 769.588562,490.096771 
	C773.789124,493.723511 777.778870,497.595947 781.813538,501.411224 
	C782.261536,501.834900 782.383484,503.055481 782.718262,503.080444 
	C790.132385,503.633301 790.563416,512.832886 796.989380,514.558899 
	C797.447021,514.681824 798.145813,515.033264 798.199768,515.365234 
	C799.104370,520.920471 805.116394,521.609009 807.875793,525.518127 
	C809.498474,527.816956 812.374329,529.912598 815.075745,530.626038 
	C820.625305,532.091614 820.568909,539.595825 826.629883,540.396667 
	C828.164429,540.599426 830.067749,542.738281 830.672607,544.398743 
	C832.816406,550.284424 838.249268,552.944275 842.232788,557.001770 
	C844.858093,559.675842 847.654114,562.182312 850.670898,565.260620 
	C851.018005,566.531372 851.067932,567.305359 851.061279,568.286194 
	C851.004639,568.493103 851.018372,568.921936 851.018372,568.921936 
	C846.639099,564.942993 842.308044,560.909363 837.869202,556.997925 
	C831.294067,551.204163 824.519165,545.631653 818.061035,539.712219 
	C812.568237,534.677429 807.405884,529.282349 802.086914,524.057312 
	C801.666626,523.644470 801.164307,523.315247 800.700623,522.946411 
	C798.432312,521.142212 796.164185,519.337830 793.895996,517.533447 
	C794.226135,517.095032 794.556213,516.656677 794.886353,516.218323 
	C791.824524,515.746582 789.429077,515.739380 787.127014,512.129089 
	C783.928833,507.113525 778.414917,503.275879 773.261353,499.896057 
	C768.760559,496.944244 766.549927,491.866669 761.150024,489.520813 
	C756.614441,487.550476 753.317261,482.683624 749.536804,479.031799 
	C743.960388,473.645111 738.257263,468.370422 732.977478,462.703796 
	C730.401428,459.939026 726.660278,457.602325 726.965942,452.545044 
z"/>
<path fill="#CACACA" opacity="1.000000" stroke="none" 
	d="
M933.451416,793.041077 
	C933.864014,788.066589 937.534729,785.871704 941.648254,783.835938 
	C943.894104,782.724426 946.954468,781.145569 947.531372,779.162048 
	C949.436584,772.611267 955.518433,772.071045 959.975220,769.166077 
	C961.862610,767.935913 963.580261,766.411255 965.244141,764.878418 
	C970.758667,759.798157 976.062683,754.477661 981.744751,749.595276 
	C985.494019,746.373718 990.043152,744.070068 993.721802,740.782104 
	C1000.381714,734.829468 1006.012878,727.479675 1013.332153,722.601379 
	C1017.888062,719.564880 1020.286072,713.522644 1026.619263,712.939636 
	C1027.764771,712.834167 1028.790649,711.308838 1029.850464,710.413879 
	C1034.766602,706.262024 1039.787109,702.224731 1044.552734,697.906555 
	C1048.725464,694.125671 1052.607666,690.024536 1056.621216,686.067932 
	C1057.210449,685.487122 1057.815674,684.922607 1058.920410,684.458618 
	C1060.273438,683.689819 1061.119629,682.812866 1061.965698,681.935913 
	C1061.965698,681.935913 1062.456787,681.871216 1062.785767,682.079102 
	C1063.267578,682.582581 1063.510132,682.724487 1063.886719,682.791870 
	C1063.931030,682.871033 1064.022095,683.028137 1064.022095,683.028137 
	C1059.871826,687.515930 1056.038574,692.361572 1051.484863,696.393616 
	C1046.654053,700.670959 1041.054443,704.067505 1035.957153,708.061218 
	C1033.205566,710.217041 1030.858521,712.880798 1028.229614,715.203003 
	C1023.197632,719.648071 1018.009521,723.919250 1013.049194,728.441345 
	C1009.351501,731.812378 1006.093140,735.680786 1002.282227,738.905945 
	C1000.173828,740.690308 997.338745,741.621582 994.813049,742.901611 
	C994.386841,743.117615 993.480835,743.083984 993.447510,743.277710 
	C992.249695,750.231201 984.405518,750.400146 980.934937,755.710388 
	C977.526978,760.924927 970.594299,763.789856 965.345947,767.863037 
	C961.634216,770.743713 958.088440,773.848877 954.581238,776.980042 
	C949.123230,781.852661 943.832825,786.915771 938.295654,791.694580 
	C937.228943,792.615112 935.354065,792.599243 933.451416,793.041077 
z"/>
<path fill="#BFBFBF" opacity="1.000000" stroke="none" 
	d="
M842.651489,583.987793 
	C841.532654,584.720459 840.036804,585.914307 838.538696,585.917114 
	C786.884583,586.013916 735.230408,585.998474 683.576172,585.998413 
	C543.942017,585.998291 404.307892,585.997742 264.673737,585.997437 
	C262.712524,585.997437 260.751282,585.997498 258.790070,585.997498 
	C258.789978,585.665833 258.789856,585.334167 258.789764,585.002502 
	C260.565826,585.002502 262.341919,585.002502 264.118011,585.002502 
	C451.907623,585.002502 639.697205,585.004089 827.486816,584.991638 
	C831.471680,584.991394 835.456543,584.829163 839.699829,584.412231 
	C840.729919,584.019226 841.501648,583.956421 842.651489,583.987793 
z"/>
<path fill="#CACACA" opacity="1.000000" stroke="none" 
	d="
M862.191589,709.267639 
	C860.668945,710.806519 858.265076,712.109863 857.779907,713.925903 
	C855.922241,720.878296 848.821655,721.501770 844.537170,725.465332 
	C835.642822,733.693787 825.932068,741.032532 816.752625,748.963501 
	C813.008484,752.198242 809.885742,756.143005 806.254395,759.521912 
	C804.609070,761.052917 802.424927,762.011597 800.464844,763.196106 
	C795.191711,766.382751 790.022644,769.658081 788.409302,775.687195 
	C783.002563,778.860962 777.845703,781.888062 772.072571,785.137085 
	C770.321167,785.950195 769.185974,786.541382 768.050781,787.132568 
	C772.152161,783.431030 777.309631,780.375977 780.075745,775.857117 
	C783.219360,770.721497 789.230347,770.135376 792.489197,765.617798 
	C794.374390,763.004333 797.237854,761.061829 799.790955,758.976318 
	C801.706604,757.411560 803.959778,756.250549 805.822815,754.633362 
	C807.608948,753.082947 808.908142,750.959473 810.730896,749.465515 
	C817.082764,744.259460 823.766296,739.443787 829.953308,734.054504 
	C837.557800,727.430725 844.513428,720.030823 852.395325,713.780762 
	C854.169128,712.374146 855.743958,710.893066 857.821045,709.429688 
	C859.646667,709.478638 860.919128,709.373108 862.191589,709.267639 
z"/>
<path fill="#D9D9D9" opacity="1.000000" stroke="none" 
	d="
M1016.971069,566.673584 
	C1015.737854,566.942383 1014.057678,567.301331 1013.318909,566.627747 
	C1008.011475,561.788391 1003.013062,556.608337 997.674316,551.805786 
	C994.445984,548.901672 990.681213,546.602844 987.340149,543.813171 
	C982.176514,539.501770 977.175415,534.996033 972.094177,530.585632 
	C967.215088,526.350769 962.244324,522.217346 957.471436,517.866394 
	C955.475708,516.047180 953.886963,513.781616 952.351379,511.332489 
	C953.078857,510.578064 953.568054,510.210083 954.057312,509.842102 
	C955.284729,510.888367 956.474976,511.982361 957.746582,512.971924 
	C961.699585,516.048096 965.789490,518.957947 969.627686,522.169556 
	C974.146118,525.950439 978.482178,529.951599 982.849243,533.910278 
	C986.093750,536.851379 989.217834,539.925964 992.485168,542.840759 
	C993.801697,544.015198 995.345581,544.938538 996.811340,545.939026 
	C997.198364,546.203186 997.936584,546.214966 998.079590,546.535950 
	C1001.296326,553.758606 1009.304932,556.236328 1013.664551,562.319458 
	C1014.663269,563.713074 1015.856262,564.967407 1016.971069,566.673584 
z"/>
<path fill="#D9D9D9" opacity="1.000000" stroke="none" 
	d="
M745.921631,808.986633 
	C744.118652,811.038635 742.689392,814.015747 740.426697,814.930115 
	C736.851929,816.374695 735.339600,818.299805 735.883179,822.234802 
	C731.734009,823.172485 728.154907,824.568787 728.670776,829.898926 
	C728.763245,830.854187 727.377930,832.224792 726.356873,832.964661 
	C723.283813,835.191650 721.895325,838.059875 721.872986,841.843079 
	C721.866638,842.924438 720.836914,844.000122 720.275391,845.077942 
	C719.847473,845.899170 718.959534,846.781982 719.061340,847.530762 
	C719.924744,853.882507 720.610962,860.293457 722.066895,866.519043 
	C723.307129,871.821716 725.495300,876.902649 726.793213,880.703003 
	C730.105225,883.972595 733.032532,886.239075 735.130737,889.111267 
	C737.173401,891.907776 734.364685,891.784058 732.222595,892.018127 
	C728.134949,891.413879 727.903748,888.380188 726.788574,885.565002 
	C724.895874,880.786804 722.057190,876.291504 719.629395,871.862854 
	C714.888245,863.214294 718.383972,854.743958 717.378418,846.315369 
	C716.994019,843.092834 721.392151,835.492310 723.410828,832.622070 
	C725.071777,830.260315 725.559753,827.103760 727.037781,824.574158 
	C728.340027,822.345459 730.274536,820.481323 731.965759,818.486694 
	C732.981506,817.288757 734.066040,816.149231 735.854797,814.962402 
	C737.110840,814.284180 737.631775,813.627136 738.439453,812.938232 
	C739.152893,812.339905 739.579529,811.773438 740.006165,811.206970 
	C740.006165,811.206970 740.459045,811.054382 741.043152,810.973938 
	C743.058716,810.257874 744.490173,809.622253 745.921631,808.986633 
z"/>
<path fill="#D9D9D9" opacity="1.000000" stroke="none" 
	d="
M335.397583,696.756348 
	C336.019409,695.781860 337.096893,694.184998 338.182220,694.179688 
	C365.649231,694.044617 393.117126,694.058899 420.584564,694.141357 
	C421.731506,694.144775 422.875702,695.057556 424.052795,696.053101 
	C399.992188,696.626099 375.899994,696.688477 351.807800,696.762512 
	C346.490753,696.778870 341.173859,696.836731 335.397583,696.756348 
z"/>
<path fill="#D9D9D9" opacity="1.000000" stroke="none" 
	d="
M505.397522,696.756531 
	C506.013214,695.781860 507.084473,694.184937 508.163574,694.179626 
	C535.693848,694.043823 563.225037,694.056335 590.755737,694.143066 
	C591.846924,694.146484 592.935059,695.132812 594.024231,696.104248 
	C570.944397,696.617981 547.864929,696.684509 524.785461,696.761963 
	C518.475830,696.783081 512.166321,696.837036 505.397522,696.756531 
z"/>
<path fill="#D9D9D9" opacity="1.000000" stroke="none" 
	d="
M676.397461,696.756287 
	C677.019287,695.781860 678.096741,694.185059 679.182129,694.179626 
	C706.315857,694.044250 733.450500,694.058716 760.584656,694.141418 
	C761.731567,694.144897 762.875793,695.057617 764.052856,696.053223 
	C740.325317,696.626160 716.566284,696.688477 692.807190,696.762451 
	C687.490295,696.779053 682.173584,696.836670 676.397461,696.756287 
z"/>
<path fill="#CACACA" opacity="1.000000" stroke="none" 
	d="
M1066.802612,612.698853 
	C1062.279541,609.754822 1056.786011,607.215210 1053.727295,602.935486 
	C1048.838623,596.095459 1041.960938,592.748962 1035.324585,588.523010 
	C1031.855103,586.313660 1029.470337,582.363342 1026.692505,579.116394 
	C1024.237549,576.246643 1021.916992,573.261963 1019.793945,570.156738 
	C1021.359436,570.502930 1022.880066,570.753174 1023.935608,571.590027 
	C1026.725098,573.801208 1029.699097,575.956238 1031.901245,578.695312 
	C1036.557251,584.486755 1043.200073,587.851257 1048.383911,592.970764 
	C1054.053223,598.569824 1059.979980,603.907471 1065.706543,609.450256 
	C1066.394531,610.116272 1066.531860,611.351257 1066.802612,612.698853 
z"/>
<path fill="#CACACA" opacity="1.000000" stroke="none" 
	d="
M734.226685,894.319824 
	C740.216553,894.009827 744.425415,898.254700 748.948303,901.473206 
	C754.471252,905.403320 760.238098,908.182434 767.055054,908.016418 
	C775.289795,907.815796 783.516785,907.296082 792.175720,906.908936 
	C790.857483,907.837341 789.131165,909.531067 787.360474,909.578796 
	C777.717468,909.838684 768.013794,910.262085 758.435913,909.426697 
	C754.188416,909.056274 750.183594,905.867920 746.076660,903.941589 
	C744.810303,903.347595 743.632446,902.430603 742.306885,902.122131 
	C738.161255,901.157532 735.650452,898.624329 734.226685,894.319824 
z"/>
<path fill="#A2A2A2" opacity="1.000000" stroke="none" 
	d="
M862.500183,709.155640 
	C860.919128,709.373108 859.646667,709.478638 858.194275,709.315918 
	C858.475464,708.054626 858.946472,707.066040 859.395691,706.067566 
	C860.444092,703.737305 862.365845,701.313354 857.503967,700.802612 
	C855.913391,700.635498 854.498291,698.797485 853.263672,696.984802 
	C858.017639,695.848328 862.510864,695.450745 867.004150,695.053223 
	C867.753113,695.041321 868.502075,695.029419 869.880249,695.265503 
	C871.747131,695.984497 872.984741,696.455688 874.299316,696.956116 
	C871.477356,700.454041 869.044312,703.469849 866.611267,706.485718 
	C865.343811,707.338318 864.076294,708.190979 862.500183,709.155640 
z"/>
<path fill="#A2A2A2" opacity="1.000000" stroke="none" 
	d="
M861.014282,574.980652 
	C861.401062,575.041504 861.787781,575.102417 862.510986,575.540649 
	C863.262085,576.921204 863.676880,577.924377 864.115479,579.271851 
	C865.053406,580.111145 865.967468,580.606140 867.009521,581.309814 
	C867.356750,581.771606 867.624939,581.952148 867.966919,582.422607 
	C867.985229,583.513184 867.978699,584.241089 867.970398,585.081665 
	C867.968628,585.194336 868.017822,585.414307 868.017822,585.414307 
	C862.339661,585.295593 856.661560,585.176941 850.995178,584.658325 
	C851.009399,584.095825 850.943359,583.876587 851.024170,583.779114 
	C854.904907,579.099915 855.544128,574.408386 851.065674,569.301086 
	C851.018372,568.921936 851.004639,568.493103 851.385864,568.505249 
	C854.849487,570.671875 857.931885,572.826233 861.014282,574.980652 
z"/>
<path fill="#D9D9D9" opacity="1.000000" stroke="none" 
	d="
M866.709290,694.757568 
	C862.510864,695.450745 858.017639,695.848328 853.273682,696.583313 
	C843.861816,696.908081 834.700684,696.895447 825.223633,696.759888 
	C825.870911,695.793030 826.831604,694.218933 827.797913,694.215454 
	C840.669678,694.169250 853.542114,694.343018 866.709290,694.757568 
z"/>
<path fill="#D3D3D3" opacity="1.000000" stroke="none" 
	d="
M745.981445,808.618896 
	C744.490173,809.622253 743.058716,810.257874 741.278687,810.933777 
	C742.753906,808.679016 744.315735,806.096008 746.456299,804.149231 
	C750.835510,800.166504 755.525757,796.525696 760.598022,792.382874 
	C762.346802,791.995667 763.585449,791.969604 764.824219,791.943604 
	C763.030579,794.160034 761.577942,796.828308 759.369507,798.494995 
	C755.279907,801.581238 750.737244,804.064819 746.424438,806.862854 
	C746.123230,807.058167 746.161133,807.776245 745.981445,808.618896 
z"/>
<path fill="#D9D9D9" opacity="1.000000" stroke="none" 
	d="
M228.182648,692.370728 
	C229.030640,691.411621 230.165756,690.162598 231.083267,690.305969 
	C238.667328,691.491272 246.215149,692.913391 253.757843,694.348511 
	C254.251450,694.442444 254.612228,695.234436 255.034225,696.138916 
	C251.255219,696.645508 246.212097,698.278381 243.961945,696.458313 
	C239.297485,692.685303 233.908310,694.915405 229.353210,692.757996 
	C229.081131,692.629150 228.699539,692.731445 228.182648,692.370728 
z"/>
<path fill="#CACACA" opacity="1.000000" stroke="none" 
	d="
M1074.068237,663.405762 
	C1077.239136,654.789062 1075.927490,645.912354 1075.656616,637.084106 
	C1075.564819,634.088440 1075.841675,631.081482 1076.344727,628.005371 
	C1076.744629,628.720703 1076.749634,629.510193 1076.881348,631.021423 
	C1077.255005,632.799500 1077.501709,633.855957 1077.748535,634.912354 
	C1077.766846,641.992615 1077.785034,649.072876 1077.528809,656.863037 
	C1077.170410,658.719116 1077.086304,659.865356 1077.002197,661.011536 
	C1076.837769,661.882446 1076.673340,662.753357 1075.895996,663.783813 
	C1074.857300,663.815430 1074.431763,663.687561 1074.025391,663.522705 
	C1074.044434,663.485718 1074.068237,663.405762 1074.068237,663.405762 
z"/>
<path fill="#D9D9D9" opacity="1.000000" stroke="none" 
	d="
M1073.698242,663.283752 
	C1074.068237,663.405762 1074.044434,663.485718 1074.017090,663.968506 
	C1073.997803,665.319458 1074.005737,666.187561 1074.013672,667.055725 
	C1074.786621,672.247742 1071.492676,675.217957 1067.328247,678.067383 
	C1066.481567,678.057678 1066.300171,678.056824 1066.118652,678.055908 
	C1065.816040,674.212524 1065.389282,670.305420 1070.665405,669.560486 
	C1070.631958,666.858276 1068.423828,663.434387 1073.698242,663.283752 
z"/>
<path fill="#CACACA" opacity="1.000000" stroke="none" 
	d="
M1073.990112,624.509827 
	C1073.842407,626.123596 1073.666992,627.330444 1073.491577,628.537354 
	C1072.937012,628.604431 1072.382324,628.671448 1071.827637,628.738525 
	C1071.417725,626.754333 1071.007690,624.770142 1070.597778,622.786011 
	C1070.751099,622.794189 1070.904419,622.802429 1071.057617,622.810608 
	C1070.210693,620.571960 1069.363770,618.333313 1068.805664,616.038452 
	C1070.849487,618.609802 1075.329834,619.603699 1073.990112,624.509827 
z"/>
<path fill="#D3D3D3" opacity="1.000000" stroke="none" 
	d="
M767.657959,787.133484 
	C769.185974,786.541382 770.321167,785.950195 771.703186,785.176025 
	C772.379150,788.947021 770.625244,791.219055 766.335327,791.452393 
	C765.366211,790.058167 764.756348,789.025452 764.146484,787.992737 
	C765.186035,787.706604 766.225525,787.420532 767.657959,787.133484 
z"/>
<path fill="#BFBFBF" opacity="1.000000" stroke="none" 
	d="
M954.083984,509.483521 
	C953.568054,510.210083 953.078857,510.578064 952.266602,510.998657 
	C951.335754,510.594421 950.727905,510.137543 949.989624,509.425476 
	C948.924072,507.435303 947.988892,505.700287 947.010193,503.630096 
	C949.347961,505.238251 951.729309,507.181580 954.083984,509.483521 
z"/>
<path fill="#CACACA" opacity="1.000000" stroke="none" 
	d="
M764.118774,788.366333 
	C764.756348,789.025452 765.366211,790.058167 765.966919,791.433044 
	C765.771851,791.819153 765.585938,791.863098 765.112061,791.925354 
	C763.585449,791.969604 762.346802,791.995667 760.732300,792.021606 
	C761.601379,790.927673 762.846252,789.833801 764.118774,788.366333 
z"/>
<path fill="#D9D9D9" opacity="1.000000" stroke="none" 
	d="
M310.340759,696.756226 
	C310.507324,695.801636 311.076324,694.966125 311.645355,694.130615 
	C312.476898,694.730957 313.308441,695.331299 314.102905,696.284424 
	C312.958282,696.716553 311.850739,696.795959 310.340759,696.756226 
z"/>
<path fill="#D9D9D9" opacity="1.000000" stroke="none" 
	d="
M445.286316,696.756470 
	C445.748230,693.018433 447.191528,693.069031 449.097595,696.265259 
	C447.914978,696.716736 446.764221,696.796326 445.286316,696.756470 
z"/>
<path fill="#D9D9D9" opacity="1.000000" stroke="none" 
	d="
M480.340759,696.756226 
	C480.507324,695.801636 481.076324,694.966125 481.645355,694.130615 
	C482.476898,694.730957 483.308441,695.331238 484.102905,696.284424 
	C482.958282,696.716553 481.850739,696.795959 480.340759,696.756226 
z"/>
<path fill="#D9D9D9" opacity="1.000000" stroke="none" 
	d="
M608.340881,696.756226 
	C608.430969,695.815735 608.923584,694.994324 609.416199,694.172913 
	C610.324097,694.758972 611.231995,695.345093 612.102844,696.284180 
	C610.958313,696.716553 609.850830,696.795898 608.340881,696.756226 
z"/>
<path fill="#D9D9D9" opacity="1.000000" stroke="none" 
	d="
M615.340942,696.756226 
	C615.507385,695.801636 616.076294,694.966125 616.645264,694.130554 
	C617.476807,694.730896 618.308411,695.331238 619.102905,696.284424 
	C617.958313,696.716553 616.850830,696.795898 615.340942,696.756226 
z"/>
<path fill="#D9D9D9" opacity="1.000000" stroke="none" 
	d="
M778.206909,696.758667 
	C778.745483,693.317688 780.120361,692.973694 782.088806,696.236145 
	C780.867493,696.718201 779.669128,696.799255 778.206909,696.758667 
z"/>
<path fill="#BFBFBF" opacity="1.000000" stroke="none" 
	d="
M942.843384,499.691650 
	C941.538208,498.959442 940.281494,497.830109 939.006958,496.363953 
	C941.587524,495.566589 942.715881,496.861725 942.843384,499.691650 
z"/>
<path fill="#CACACA" opacity="1.000000" stroke="none" 
	d="
M1065.858643,678.093872 
	C1066.300171,678.056824 1066.481567,678.057678 1066.934692,678.076660 
	C1066.390869,679.699829 1065.575439,681.304932 1064.391113,682.969116 
	C1064.022095,683.028137 1063.931030,682.871033 1064.097412,682.523926 
	C1064.538696,680.870544 1064.813599,679.564209 1065.088501,678.257874 
	C1065.258667,678.215820 1065.428711,678.173828 1065.858643,678.093872 
z"/>
<path fill="#D9D9D9" opacity="1.000000" stroke="none" 
	d="
M786.320435,696.756104 
	C786.423462,695.827209 786.908508,695.017212 787.393494,694.207275 
	C787.978943,694.791504 788.564331,695.375732 789.107666,696.298584 
	C788.277832,696.716431 787.490051,696.795715 786.320435,696.756104 
z"/>
<path fill="#D9D9D9" opacity="1.000000" stroke="none" 
	d="
M651.320374,696.755981 
	C651.423462,695.827148 651.908447,695.017212 652.393555,694.207275 
	C652.978943,694.791565 653.564331,695.375793 654.107666,696.298584 
	C653.277832,696.716370 652.490051,696.795654 651.320374,696.755981 
z"/>
<path fill="#D9D9D9" opacity="1.000000" stroke="none" 
	d="
M267.661865,696.747925 
	C267.713806,695.861877 267.996826,695.086792 268.279846,694.311646 
	C269.097015,694.809082 269.914154,695.306580 270.510681,696.219604 
	C269.491028,696.709717 268.691986,696.784302 267.661865,696.747925 
z"/>
<path fill="#D9D9D9" opacity="1.000000" stroke="none" 
	d="
M438.944580,696.743408 
	C438.938538,695.866211 439.142426,695.097229 439.346283,694.328308 
	C440.178741,694.816650 441.011200,695.304993 441.707581,696.215210 
	C440.765808,696.708557 439.960144,696.780090 438.944580,696.743408 
z"/>
<path fill="#FEFEFE" opacity="1.000000" stroke="none" 
	d="
M1074.395752,667.027588 
	C1074.005737,666.187561 1073.997803,665.319458 1073.998047,664.005493 
	C1074.431763,663.687561 1074.857300,663.815430 1075.614502,663.966675 
	C1075.556641,664.993164 1075.167114,665.996277 1074.395752,667.027588 
z"/>
<path fill="#BFBFBF" opacity="1.000000" stroke="none" 
	d="
M847.733765,584.213257 
	C847.049622,584.553772 845.992126,584.726746 844.927734,584.567993 
	C845.734009,584.172729 846.547241,584.109253 847.733765,584.213257 
z"/>
<path fill="#FEFEFE" opacity="1.000000" stroke="none" 
	d="
M738.152710,812.970032 
	C737.631775,813.627136 737.110840,814.284180 736.244507,814.957703 
	C736.339478,813.979858 736.779785,812.985535 737.609375,812.197876 
	C738.049988,812.592896 738.101318,812.781433 738.152710,812.970032 
z"/>
<path fill="#D9D9D9" opacity="1.000000" stroke="none" 
	d="
M275.953918,696.658081 
	C275.910919,695.965332 275.976532,695.301392 276.042175,694.637451 
	C276.588837,695.010498 277.135559,695.383606 277.434631,696.192871 
	C276.812195,696.648376 276.437408,696.667603 275.953918,696.658081 
z"/>
<path fill="#BFBFBF" opacity="1.000000" stroke="none" 
	d="
M944.975403,501.662659 
	C944.364197,501.599609 943.686157,501.217010 942.959167,500.519226 
	C943.576294,500.583771 944.242493,500.963470 944.975403,501.662659 
z"/>
<path fill="#FEFEFE" opacity="1.000000" stroke="none" 
	d="
M1077.865479,634.553467 
	C1077.501709,633.855957 1077.255005,632.799500 1076.999268,631.398438 
	C1077.320923,632.100769 1077.651733,633.147705 1077.865479,634.553467 
z"/>
<path fill="#FEFEFE" opacity="1.000000" stroke="none" 
	d="
M1077.361694,660.899780 
	C1077.086304,659.865356 1077.170410,658.719116 1077.505371,657.338257 
	C1077.744385,658.331665 1077.732788,659.559875 1077.361694,660.899780 
z"/>
<path fill="#D3D3D3" opacity="1.000000" stroke="none" 
	d="
M738.439453,812.938232 
	C738.101318,812.781433 738.049988,812.592896 737.979675,812.111938 
	C738.438049,811.552551 738.915466,811.285645 739.699524,811.112854 
	C739.579529,811.773438 739.152893,812.339905 738.439453,812.938232 
z"/>
<path fill="#BFBFBF" opacity="1.000000" stroke="none" 
	d="
M937.820984,493.752289 
	C937.517761,493.968231 937.304321,493.845673 937.070557,493.462769 
	C937.288086,493.358246 937.574951,493.428680 937.820984,493.752289 
z"/>
<path fill="#D9D9D9" opacity="1.000000" stroke="none" 
	d="
M867.020203,706.627258 
	C869.044312,703.469849 871.477356,700.454041 874.299316,696.956116 
	C872.984741,696.455688 871.747131,695.984497 870.254761,695.259644 
	C872.562500,695.031982 876.630066,694.108276 877.371582,695.283386 
	C878.877930,697.670532 878.258850,700.433350 875.146851,703.034912 
	C872.636963,705.132874 870.540039,706.577881 867.020203,706.627258 
z"/>
<path fill="#D9D9D9" opacity="1.000000" stroke="none" 
	d="
M861.003174,574.585815 
	C857.931885,572.826233 854.849487,570.671875 851.442505,568.298340 
	C851.067932,567.305359 851.018005,566.531372 850.953735,565.459839 
	C855.714783,566.585815 860.625366,567.858826 861.003174,574.585815 
z"/>
<path fill="#D9D9D9" opacity="1.000000" stroke="none" 
	d="
M867.942017,582.059998 
	C867.624939,581.952148 867.356750,581.771606 867.042480,580.976562 
	C866.928589,579.992676 866.909668,579.550537 866.937988,579.062012 
	C866.985229,579.015625 867.079529,578.922546 867.079529,578.922546 
	C870.539124,579.559631 872.964905,580.838196 870.447876,585.012451 
	C870.074951,585.072693 869.985962,584.986084 869.992920,584.629395 
	C869.313965,583.535217 868.627991,582.797607 867.942017,582.059998 
z"/>
<path fill="#D9D9D9" opacity="1.000000" stroke="none" 
	d="
M864.091675,578.927612 
	C863.676880,577.924377 863.262085,576.921204 862.801758,575.581604 
	C865.141602,574.789185 867.136597,574.907471 867.047241,578.531189 
	C867.079529,578.922546 866.985229,579.015625 866.590454,579.025146 
	C865.494324,578.998901 864.792969,578.963257 864.091675,578.927612 
z"/>
<path fill="#D9D9D9" opacity="1.000000" stroke="none" 
	d="
M1064.746338,678.198914 
	C1064.813599,679.564209 1064.538696,680.870544 1064.053101,682.444763 
	C1063.510132,682.724487 1063.267578,682.582581 1063.033447,682.076416 
	C1063.375732,680.600342 1060.663086,678.112366 1064.746338,678.198914 
z"/>
<path fill="#D9D9D9" opacity="1.000000" stroke="none" 
	d="
M1061.609131,681.953125 
	C1061.119629,682.812866 1060.273438,683.689819 1059.233521,684.337952 
	C1059.777344,683.396240 1060.514893,682.683289 1061.609131,681.953125 
z"/>
<path fill="#D9D9D9" opacity="1.000000" stroke="none" 
	d="
M870.119751,585.115662 
	C869.474854,585.412048 868.785095,585.665527 868.056641,585.666626 
	C868.017822,585.414307 867.968628,585.194336 868.306152,585.100525 
	C869.091125,584.999817 869.538513,584.992981 869.985962,584.986084 
	C869.985962,584.986084 870.074951,585.072693 870.119751,585.115662 
z"/>
<path fill="#BFBFBF" opacity="1.000000" stroke="none" 
	d="
M869.992920,584.629395 
	C869.538513,584.992981 869.091125,584.999817 868.307922,584.987915 
	C867.978699,584.241089 867.985229,583.513184 867.966919,582.422607 
	C868.627991,582.797607 869.313965,583.535217 869.992920,584.629395 
z"/>
<path fill="#BFBFBF" opacity="1.000000" stroke="none" 
	d="
M864.115479,579.271851 
	C864.792969,578.963257 865.494324,578.998901 866.543152,579.071533 
	C866.909668,579.550537 866.928589,579.992676 866.914551,580.768005 
	C865.967468,580.606140 865.053406,580.111145 864.115479,579.271851 
z"/>
</svg>